<svg xmlns="http://www.w3.org/2000/svg" viewBox="0 0 544 544" role="img" aria-labelledby="betterbacoor-favicon-title betterbacoor-favicon-description">
<title id="betterbacoor-favicon-title">BetterBacoor favicon</title>
<desc id="betterbacoor-favicon-description">The approved BetterBacoor community emblem on a white background.</desc>
<!-- Generated from all 94 unchanged logo-mark.svg paths; geometry SHA-256: 54c634d9ea64f1914745400a13a7310ceb3ee094731914ff7758d24e7bd0f2bb -->
<rect width="544" height="544" rx="88" fill="#fff" />
<g transform="translate(16 32.5)">
  <path d="M0 0 C3.97 1.99 5.63 3.54 8.5 6.81 C9.25 7.66 10.01 8.52 10.78 9.39 C11.15 9.82 11.15 9.82 13 12 C13.36 12.36 13.36 12.36 15.17 14.16 C17.73 18.13 17.09 20.43 16.44 25.07 C16.22 26.78 16 28.49 15.78 30.2 C15.71 30.66 15.71 30.66 15.39 33.01 C14.67 38.49 14.12 43.99 13.53 49.49 C13.27 51.87 13 54.24 12.74 56.62 C12.34 60.28 11.93 63.94 11.53 67.6 C11.13 71.19 10.74 74.78 10.34 78.37 C10.22 79.46 10.1 80.56 9.98 81.69 C9.86 82.71 9.75 83.73 9.63 84.78 C9.53 85.67 9.44 86.56 9.33 87.48 C9 90.01 8.53 92.5 8 95 C9.32 95 10.64 95 12 95 C12.07 94.43 12.07 94.43 12.41 91.52 C14.16 77.21 16.36 62.98 18.62 48.75 C18.7 48.25 18.7 48.25 19.1 45.72 C19.56 42.85 20.02 39.98 20.48 37.11 C20.55 36.67 20.55 36.67 20.9 34.46 C21.42 31.21 21.96 28.13 23 25 C25 25 25 25 28.25 27.75 C30.29 30.21 31.02 31.37 30.93 34.6 C30.74 35.55 30.55 36.5 30.35 37.48 C30.24 38.01 30.24 38.01 29.72 40.7 C29.48 41.79 29.24 42.88 29 44 C28.78 45.01 28.57 46.03 28.34 47.07 C27.65 50.24 26.92 53.39 26.18 56.55 C25.92 57.68 25.65 58.82 25.38 59.99 C24.55 63.58 23.71 67.16 22.88 70.75 C22.31 73.2 21.74 75.65 21.17 78.1 C19.78 84.07 18.39 90.03 17 96 C17.38 96.1 17.38 96.1 19.29 96.6 C20.28 96.86 21.27 97.13 22.29 97.4 C23.27 97.66 24.25 97.92 25.26 98.18 C28.47 99.14 31.15 100.5 34 102.25 C36.69 103.89 36.69 103.89 39 105 C43.67 103.44 45.09 99.26 47.44 95.19 C48.51 93.36 49.59 91.54 50.66 89.71 C51.21 88.77 51.76 87.83 52.33 86.85 C54.98 82.32 57.68 77.82 60.38 73.31 C60.85 72.51 61.32 71.71 61.81 70.89 C63.19 68.58 64.59 66.29 66 64 C66.25 63.58 66.25 63.58 67.52 61.47 C71.4 55.26 71.4 55.26 74.29 54 C77.19 53.34 80.03 53 83 53 C81.42 57.76 78.66 61.54 75.75 65.56 C74.66 67.08 73.58 68.6 72.5 70.11 C71.93 70.91 71.36 71.7 70.77 72.52 C67.15 77.59 63.59 82.69 60.04 87.8 C57.41 91.57 54.77 95.32 52.08 99.05 C51.25 100.21 50.42 101.37 49.56 102.56 C49.2 103.06 49.2 103.06 47.38 105.57 C46.92 106.37 46.47 107.17 46 108 C46.33 108.99 46.66 109.98 47 111 C47.66 111.33 48.32 111.66 49 112 C49.25 111.27 49.51 110.54 49.77 109.79 C51.09 106.79 52.61 104.85 54.75 102.38 C58.95 97.37 62.84 92.21 66.69 86.94 C72.09 79.53 77.63 72.25 83.29 65.05 C85.84 61.82 88.19 58.67 90.31 55.14 C93.85 51.01 97.35 50.37 102.5 49.56 C103.34 49.4 104.18 49.24 105.05 49.08 C109.12 48.34 112.85 48 117 48 C116.86 50.85 116.71 53.71 116.56 56.56 C116.52 57.36 116.52 57.36 116.32 61.38 C116.21 62.9 116.11 64.43 116 66 C115.97 66.62 115.97 66.62 115.8 69.75 C114.75 74.03 112.95 75.53 109.62 78.38 C108.53 79.32 107.44 80.27 106.32 81.25 C102.52 84.4 98.7 87.53 94.85 90.62 C91.63 93.31 88.57 96.14 85.5 99 C80.68 103.5 75.73 107.75 70.59 111.89 C66.61 115.13 62.8 118.55 59 122 C59.33 122.5 59.33 122.5 61 125 C68.28 119.51 75.42 113.88 82.44 108.06 C89.86 101.91 97.39 95.91 105 90 C105.95 89.26 106.89 88.53 107.87 87.77 C109.91 86.17 111.95 84.59 114 83 C114.66 83.33 115.32 83.66 116 84 C116 87.68 115.96 90.5 115 94 C112.26 96.71 110.13 98.44 106.94 100.44 C106.13 100.98 105.31 101.53 104.48 102.09 C102.8 103.21 101.12 104.32 99.43 105.42 C95.88 107.73 92.42 110.15 88.94 112.56 C87.64 113.45 86.35 114.33 85.02 115.24 C80.72 118.19 76.45 121.18 72.19 124.19 C71.47 124.7 70.74 125.2 70 125.73 C66.15 128.45 62.34 131.23 58.56 134.06 C53.22 137.98 47.58 141.37 41.91 144.78 C36.84 147.85 31.87 151.02 26.94 154.31 C25.73 155.12 24.52 155.93 23.27 156.76 C21.27 158.13 19.29 159.53 17.35 160.99 C11.83 165.08 11.83 165.08 7.27 164.64 C5.86 164.43 4.45 164.22 3 164 C0.18 163.99 -2.64 164.03 -5.46 164.11 C-24.48 164.35 -38.32 164.21 -53 151 C-55.81 148.99 -58.71 147.12 -61.62 145.25 C-63.75 143.83 -65.88 142.42 -68 141 C-66.55 136.55 -64.89 132.28 -63 128 C-63.31 127.8 -63.31 127.8 -64.85 126.78 C-74.72 120.23 -84.5 113.54 -94.28 106.86 C-96.83 105.12 -99.38 103.38 -101.94 101.66 C-103.4 100.67 -104.86 99.68 -106.31 98.69 C-106.95 98.26 -106.95 98.26 -110.18 96.07 C-113 94 -113 94 -114 92 C-114.14 88.66 -114.04 85.34 -114 82 C-112.17 83.37 -110.35 84.74 -108.52 86.11 C-106.78 87.41 -105.04 88.72 -103.29 90.02 C-95.42 95.88 -87.7 101.92 -80 108 C-77.48 109.98 -74.96 111.96 -72.44 113.94 C-66.1 118.91 -66.1 118.91 -63.29 121.38 C-62.53 121.91 -61.78 122.45 -61 123 C-60.01 122.67 -59.02 122.34 -58 122 C-59.23 118.32 -60.59 117.5 -63.62 115.12 C-68.28 111.41 -72.82 107.6 -77.31 103.69 C-78.6 102.57 -79.88 101.46 -81.16 100.34 C-81.8 99.79 -82.43 99.23 -83.09 98.66 C-91.17 91.63 -99.29 84.67 -107.7 78.04 C-113.31 73.08 -114.5 69.76 -115.06 62.38 C-115.12 61.33 -115.19 60.27 -115.25 59.19 C-115.33 58.11 -115.4 57.04 -115.48 55.93 C-115.67 53.29 -115.84 50.64 -116 48 C-113.55 48.24 -111.11 48.48 -108.66 48.73 C-106.55 48.94 -104.43 49.14 -102.31 49.33 C-95.26 50.35 -91.32 51.92 -86.69 57.44 C-85.09 59.6 -83.53 61.79 -82 64 C-80.44 66.07 -78.88 68.13 -77.31 70.19 C-76.94 70.69 -76.94 70.69 -75.07 73.21 C-73.31 75.59 -71.51 77.93 -69.69 80.25 C-65.86 85.14 -62.15 90.12 -58.43 95.1 C-54.68 100.11 -50.87 105.08 -47 110 C-46.01 109.34 -45.02 108.68 -44 108 C-52.13 96.37 -60.28 84.74 -68.48 73.15 C-71.24 69.25 -73.99 65.34 -76.75 61.44 C-77.77 60 -78.78 58.56 -79.8 57.12 C-80.52 56.09 -81.25 55.06 -82 54 C-77.45 52.48 -74.5 53.54 -70 55 C-67.36 57.99 -67.36 57.99 -65.19 61.88 C-64.99 62.23 -64.99 62.23 -63.96 64 C-63.09 65.52 -62.22 67.04 -61.37 68.57 C-59.46 71.96 -57.44 75.29 -55.43 78.62 C-53.89 81.16 -52.37 83.7 -50.85 86.25 C-47.29 92.2 -43.66 98.11 -40 104 C-36.22 103.39 -33.14 102.27 -29.69 100.62 C-25.21 98.49 -20.65 96.73 -16 95 C-16.16 94.28 -16.33 93.57 -16.49 92.83 C-18.19 85.39 -19.87 77.94 -21.55 70.49 C-22.18 67.71 -22.81 64.94 -23.45 62.16 C-24.35 58.16 -25.26 54.17 -26.16 50.18 C-26.44 48.93 -26.72 47.69 -27.02 46.41 C-27.15 45.83 -27.15 45.83 -27.81 42.89 C-28.04 41.87 -28.27 40.85 -28.51 39.8 C-29 37 -29 37 -29 32 C-26.12 28.19 -26.12 28.19 -23 25 C-22.34 25 -21.68 25 -21 25 C-20.06 30.76 -19.11 36.52 -18.17 42.27 C-17.86 44.22 -17.54 46.17 -17.22 48.12 C-16.13 54.74 -15.06 61.37 -14 68 C-13.85 68.94 -13.7 69.87 -13.55 70.84 C-13.11 73.55 -12.69 76.27 -12.27 78.98 C-12.02 80.55 -11.78 82.12 -11.53 83.74 C-11.06 87.55 -10.9 91.16 -11 95 C-9.35 95 -7.7 95 -6 95 C-6.14 94.35 -6.29 93.69 -6.43 93.02 C-7.14 89.26 -7.61 85.5 -8.09 81.71 C-8.19 80.9 -8.29 80.09 -8.39 79.26 C-8.72 76.63 -9.05 74 -9.38 71.38 C-9.49 70.48 -9.6 69.59 -9.71 68.67 C-11.13 57.26 -12.52 45.86 -13.81 34.44 C-13.94 33.36 -14.06 32.29 -14.19 31.19 C-14.4 29.27 -14.6 27.35 -14.77 25.43 C-14.96 23.38 -15.24 21.35 -15.54 19.31 C-14.68 14.04 -11.21 11.22 -7.5 7.56 C-6.78 6.83 -6.07 6.1 -5.33 5.35 C-3.57 3.55 -1.79 1.77 0 0 Z " fill="#FCD116" transform="translate(256,14)"/>
  <path d="M0 0 C1.43 -0.01 2.86 -0.03 4.34 -0.04 C8.06 0.19 8.06 0.19 11.06 2.19 C11.12 5.64 11.02 8.89 10.75 12.31 C10.69 13.26 10.63 14.2 10.56 15.18 C10.41 17.51 10.24 19.85 10.06 22.19 C12.37 22.35 12.37 22.35 24.06 23.19 C24.16 30.9 24.16 30.9 24.06 33.19 C23.06 34.19 23.06 34.19 20.12 34.29 C18.44 34.27 18.44 34.27 10.06 34.19 C10.06 40.13 10.06 46.07 10.06 52.19 C12.97 52.21 15.88 52.23 18.88 52.25 C20.51 52.26 22.15 52.27 23.83 52.29 C28.06 52.19 28.06 52.19 31.06 51.19 C31.06 50.53 31.06 49.87 31.06 49.19 C25.45 49.19 19.84 49.19 14.06 49.19 C14.06 45.23 14.06 41.27 14.06 37.19 C14.51 37.21 14.51 37.21 16.77 37.31 C20.8 37.49 24.84 37.65 28.88 37.81 C30.28 37.88 31.69 37.94 33.13 38.01 C34.48 38.06 35.82 38.11 37.21 38.16 C38.45 38.22 39.69 38.27 40.97 38.32 C44.06 38.19 44.06 38.19 47.06 36.19 C40.46 35.53 33.86 34.87 27.06 34.19 C27.06 30.56 27.06 26.93 27.06 23.19 C36.92 22.91 46.32 23.66 56.06 25.19 C56.06 28.16 56.06 31.13 56.06 34.19 C57.38 33.86 58.7 33.53 60.06 33.19 C60.06 30.55 60.06 27.91 60.06 25.19 C63.61 25.64 67.15 26.1 70.69 26.56 C71.19 26.63 71.19 26.63 73.71 26.95 C78.71 27.61 83.34 28.33 88.06 30.19 C88.06 31.84 88.06 33.49 88.06 35.19 C89.38 35.52 90.7 35.85 92.06 36.19 C92.06 34.21 92.06 32.23 92.06 30.19 C95.21 30.78 98.36 31.39 101.5 32 C102.38 32.17 103.26 32.33 104.16 32.5 C109.99 33.64 115.46 35.2 121.06 37.19 C121.06 40.82 121.06 44.45 121.06 48.19 C117.76 47.86 114.46 47.53 111.06 47.19 C115.6 50.39 120.56 51.56 125.88 52.88 C126.76 53.1 127.64 53.32 128.55 53.56 C130.72 54.11 132.89 54.65 135.06 55.19 C135.06 58.82 135.06 62.45 135.06 66.19 C130.63 65.73 126.39 65.27 122.06 64.19 C122.39 65.18 122.72 66.17 123.06 67.19 C125.79 68.14 125.79 68.14 129.12 68.88 C130.23 69.13 131.33 69.38 132.47 69.64 C132.9 69.73 132.9 69.73 135.06 70.19 C135.06 74.15 135.06 78.11 135.06 82.19 C131.76 81.53 128.46 80.87 125.06 80.19 C125.06 81.51 125.06 82.83 125.06 84.19 C126.34 84.33 127.62 84.48 128.94 84.62 C133.06 85.19 133.06 85.19 135.06 86.19 C133.06 90.19 133.06 90.19 130.06 94.19 C127.14 94.58 127.14 94.58 123.88 94.44 C122.79 94.4 121.7 94.37 120.58 94.33 C119.75 94.28 118.92 94.24 118.06 94.19 C118.04 93.6 118.04 93.6 117.95 90.6 C117.28 74.43 114.38 60.54 102.06 49.19 C98.88 46.83 95.6 44.95 92.06 43.19 C91.65 42.98 91.65 42.98 89.57 41.93 C78.71 37.22 65.78 37.58 54.84 41.87 C40.35 48.76 32.47 57.91 27.09 72.89 C26.39 74.98 25.72 77.08 25.06 79.19 C24.67 79.03 24.67 79.03 22.69 78.25 C19.63 77.35 17.14 76.95 14 76.69 C9.92 76.27 7.7 75.66 4.06 74.19 C-0.09 73.8 -2.53 74.01 -6.38 75.69 C-9.94 77.19 -9.94 77.19 -13.94 77.12 C-18.71 77.2 -20.93 78.73 -24.94 81.19 C-25.23 80.14 -25.52 79.09 -25.82 78 C-28.25 69.68 -30.63 63.05 -35.94 56.19 C-36.3 55.67 -36.3 55.67 -38.12 53.06 C-47.34 43.64 -59.02 39.04 -72.06 38.75 C-84.41 39.12 -94.95 42.96 -104.3 51.29 C-113.42 61 -117.08 71.94 -117.56 85.12 C-117.6 86 -117.64 86.87 -117.68 87.78 C-117.77 89.91 -117.86 92.05 -117.94 94.19 C-128.96 94.97 -128.96 94.97 -132.75 91.94 C-133.94 89.19 -133.94 89.19 -132.94 85.19 C-131.78 85.02 -131.78 85.02 -125.94 84.19 C-125.61 82.87 -125.28 81.55 -124.94 80.19 C-126.42 80.52 -126.42 80.52 -133.94 82.19 C-133.94 78.23 -133.94 74.27 -133.94 70.19 C-130.06 68.99 -127.02 68.19 -122.94 68.19 C-122.61 66.87 -122.28 65.55 -121.94 64.19 C-125.9 65.18 -129.86 66.17 -133.94 67.19 C-133.94 63.23 -133.94 59.27 -133.94 55.19 C-132.44 54.78 -130.95 54.37 -129.41 53.95 C-127.46 53.4 -125.51 52.86 -123.56 52.31 C-122.58 52.04 -121.59 51.77 -120.58 51.5 C-120.11 51.36 -120.11 51.36 -117.73 50.7 C-116.86 50.45 -115.99 50.21 -115.09 49.97 C-112.94 49.19 -112.94 49.19 -110.94 47.19 C-112.59 47.35 -112.59 47.35 -120.94 48.19 C-120.94 44.56 -120.94 40.93 -120.94 37.19 C-114.63 34.97 -108.43 33.31 -101.88 32 C-101.44 31.91 -101.44 31.91 -99.25 31.46 C-97.15 31.03 -95.04 30.61 -92.94 30.19 C-92.77 31.01 -92.77 31.01 -91.94 35.19 C-90.95 35.19 -89.96 35.19 -88.94 35.19 C-88.94 33.54 -88.94 31.89 -88.94 30.19 C-82.85 28.23 -76.81 27.37 -70.5 26.56 C-69.48 26.43 -68.46 26.29 -67.42 26.16 C-64.92 25.83 -62.43 25.51 -59.94 25.19 C-59.94 27.83 -59.94 30.47 -59.94 33.19 C-59.28 33.19 -58.62 33.19 -57.94 33.19 C-57.28 30.55 -56.62 27.91 -55.94 25.19 C-46.2 23.66 -36.8 22.91 -26.94 23.19 C-26.94 26.82 -26.94 30.45 -26.94 34.19 C-30.07 34.52 -30.07 34.52 -45.94 36.19 C-45.61 36.85 -45.28 37.51 -44.94 38.19 C-39.82 38.02 -39.82 38.02 -13.94 37.19 C-13.94 41.15 -13.94 45.11 -13.94 49.19 C-19.55 49.19 -25.16 49.19 -30.94 49.19 C-30.28 50.18 -29.62 51.17 -28.94 52.19 C-25.66 52.41 -22.58 52.47 -19.31 52.38 C-18.42 52.36 -17.52 52.35 -16.59 52.33 C-14.37 52.3 -12.16 52.24 -9.94 52.19 C-10.1 49.22 -10.1 49.22 -10.94 34.19 C-11.92 34.2 -11.92 34.2 -16.88 34.25 C-18.9 34.27 -20.92 34.26 -22.94 34.19 C-23.94 33.19 -23.94 33.19 -24.04 30.9 C-24 28.33 -23.97 25.76 -23.94 23.19 C-21.17 21.81 -18.89 22.09 -15.81 22.12 C-14.72 22.13 -13.62 22.14 -12.49 22.15 C-12.07 22.16 -12.07 22.16 -9.94 22.19 C-9.94 21.01 -9.94 19.83 -9.94 18.61 C-9.94 12.8 -9.94 6.99 -9.94 1.19 C-6.74 -0.41 -3.54 0.02 0 0 Z M-21.94 64.19 C-21.28 65.51 -20.62 66.83 -19.94 68.19 C-16.97 68.19 -14 68.19 -10.94 68.19 C-10.61 66.87 -10.28 65.55 -9.94 64.19 C-13.9 64.19 -17.86 64.19 -21.94 64.19 Z M10.06 64.19 C10.39 65.51 10.72 66.83 11.06 68.19 C14.03 68.19 17 68.19 20.06 68.19 C20.39 66.87 20.72 65.55 21.06 64.19 C17.43 64.19 13.8 64.19 10.06 64.19 Z " fill="#0038A8" transform="translate(255.9375,278.8125)"/>
  <path d="M0 0 C0.8 0.5 1.61 0.99 2.44 1.5 C5 3 5 3 9.44 2.88 C14.94 3.03 16.02 4.45 20 8 C22.33 8.36 24.66 8.7 27 9 C29.64 11.14 31.11 13.16 33 16 C33.48 16.23 33.48 16.23 35.94 17.38 C39.39 19.21 40.45 20.46 42 24 C42 25.32 42 26.64 42 28 C42.66 28.17 42.66 28.17 46 29 C48.96 32.7 49.21 35.36 49 40 C49.33 40.33 49.66 40.66 50 41 C50.5 44.69 50.5 44.69 50 49 C45.12 53.93 39.97 56.8 33.69 59.62 C32.85 60.01 32.02 60.4 31.16 60.79 C25.51 63.38 19.82 65.81 14 68 C14.64 68.02 14.64 68.02 17.88 68.15 C47.26 69.37 47.26 69.37 56 74 C56.91 76.27 56.91 76.27 57 79 C49.98 93.11 35.51 101.4 21.13 106.32 C-0.65 112.28 -23.84 110.21 -43.76 99.52 C-48.53 96.75 -52.98 93.81 -57 90 C-57 89.34 -57 88.68 -57 88 C-57.66 88 -58.32 88 -59 88 C-60.54 86.17 -60.54 86.17 -62.19 83.75 C-62.74 82.96 -63.29 82.17 -63.86 81.36 C-65 79 -65 79 -64 75 C-55.03 68.27 -42.78 68.9 -31.94 68.44 C-30.98 68.39 -30.02 68.35 -29.03 68.31 C-26.68 68.2 -24.34 68.1 -22 68 C-22.68 67.72 -23.36 67.45 -24.06 67.16 C-27.19 65.88 -30.31 64.6 -33.44 63.31 C-33.97 63.09 -33.97 63.09 -36.68 61.99 C-55.6 54.18 -55.6 54.18 -60 47 C-59.88 43.83 -59.41 41.81 -58 39 C-57.94 37.72 -57.88 36.44 -57.81 35.12 C-57 31 -57 31 -54.06 28.88 C-53.05 28.26 -52.04 27.64 -51 27 C-49.88 24 -49.88 24 -49 21 C-47.19 18.62 -47.19 18.62 -45 17 C-43.35 17 -41.7 17 -40 17 C-39.79 16.07 -39.59 15.14 -39.38 14.19 C-38 11 -38 11 -35.25 9.25 C-33.13 8.43 -30.98 7.68 -28.81 7 C-26 6 -26 6 -23 3 C-20.47 3 -17.95 3.01 -15.42 3.09 C-9.65 2.87 -6.55 -0.61 0 0 Z M-13 7 C-12.67 18.19 -11.47 29.21 -10.06 40.31 C-9.98 41 -9.98 41 -9.55 44.48 C-9.38 45.79 -9.21 47.09 -9.04 48.43 C-8.88 49.6 -8.73 50.76 -8.58 51.97 C-8 55 -8 55 -6 59 C-5.73 47.55 -6.51 36.48 -7.94 25.12 C-8.03 24.36 -8.03 24.36 -8.49 20.48 C-9.85 9.29 -9.85 9.29 -11 7 C-11.66 7 -12.32 7 -13 7 Z M2 7 C-0.95 24.2 -3.47 41.5 -3 59 C0.38 55.62 -0.01 50.67 0.51 46.09 C0.64 45 0.77 43.92 0.9 42.8 C1.32 39.33 1.72 35.85 2.12 32.38 C2.4 30.02 2.68 27.67 2.96 25.32 C3.65 19.55 4.33 13.77 5 8 C4.01 7.67 3.02 7.34 2 7 Z M-27 11 C-26.06 16.21 -24.23 21 -22.38 25.94 C-18.21 37.18 -14.54 48.55 -11 60 C-10.67 60 -10.34 60 -10 60 C-10.52 52.54 -11.93 45.93 -14.19 38.81 C-14.5 37.82 -14.81 36.82 -15.13 35.79 C-20.68 18.27 -20.68 18.27 -24 12 C-24.99 11.67 -25.98 11.34 -27 11 Z M16 11 C12.08 20.14 8.76 29.42 5.69 38.88 C5.34 39.93 4.99 40.99 4.63 42.08 C2.7 48.1 1.45 53.69 1 60 C3.7 57.3 4.24 54.68 5.43 51.04 C5.89 49.62 6.36 48.2 6.84 46.73 C7.33 45.23 7.81 43.73 8.31 42.19 C11.62 32.01 15.03 21.94 19 12 C18.01 11.67 17.02 11.34 16 11 Z M-39 19 C-37.49 23.34 -35.24 26.74 -32.62 30.5 C-26.18 40.01 -20.6 49.98 -15 60 C-14 57 -14 57 -15.34 53.73 C-27.77 29.44 -27.77 29.44 -36 19 C-36.99 19 -37.98 19 -39 19 Z M28 19 C17.98 31.12 9.9 45.45 4 60 C4.33 60.66 4.66 61.32 5 62 C5.38 61.34 5.76 60.67 6.16 59.99 C19.45 36.92 19.45 36.92 25.45 28.27 C30 21.61 30 21.61 30 19 C29.34 19 28.68 19 28 19 Z M-48 29 C-46.11 32.79 -44.46 34.81 -41.5 37.75 C-40.71 38.55 -39.91 39.35 -39.09 40.17 C-37 42 -37 42 -35 42 C-34.34 43.32 -33.68 44.64 -33 46 C-31.11 48.19 -29.16 50.33 -27.19 52.44 C-26.15 53.55 -25.11 54.66 -24.04 55.81 C-21.4 58.58 -18.72 61.31 -16 64 C-19.58 53.67 -28.26 45.45 -35.81 37.81 C-36.45 37.16 -37.08 36.52 -37.73 35.85 C-40.93 32.69 -43.62 30.23 -48 29 Z M24 41 C17.94 47.2 12.78 53.78 8 61 C8.33 61.66 8.66 62.32 9 63 C9.79 62.07 10.58 61.14 11.39 60.18 C29 39.5 29 39.5 39 32 C39 31.01 39 30.02 39 29 C33.71 29 27.63 37.48 24 41 Z M-54 40 C-54 40.99 -54 41.98 -54 43 C-53.56 43.24 -53.56 43.24 -51.36 44.43 C-40.32 50.56 -30.44 57.63 -21 66 C-20.34 65.67 -19.68 65.34 -19 65 C-28.7 54.6 -39.32 46.45 -52 40 C-52.66 40 -53.32 40 -54 40 Z M13.38 61.5 C12.26 62.65 11.15 63.81 10 65 C10.33 65.66 10.66 66.32 11 67 C11.78 66.31 12.55 65.62 13.35 64.91 C23.22 56.32 33.63 49.43 45 43 C45 42.01 45 41.02 45 40 C34.51 40 20.59 54.34 13.38 61.5 Z M-15 68 C-15.33 69.32 -15.66 70.64 -16 72 C-10.59 76.06 -6.63 76.4 0 76 C6.66 73.67 6.66 73.67 8 71 C3.25 65.12 3.25 65.12 1 64 C-9.89 63.28 -9.89 63.28 -15 68 Z M-41.31 73.81 C-42.92 74.15 -44.52 74.49 -46.18 74.83 C-50.92 75.98 -55.4 77.39 -60 79 C-59.67 79.66 -59.34 80.32 -59 81 C-51.79 79.58 -44.61 78.09 -37.44 76.5 C-36.44 76.29 -35.45 76.07 -34.42 75.86 C-31.93 75.3 -29.46 74.66 -27 74 C-26.67 73.34 -26.34 72.68 -26 72 C-31.32 71.75 -36.11 72.7 -41.31 73.81 Z M18 72 C18 72.66 18 73.32 18 74 C21.62 74.79 25.25 75.58 28.88 76.38 C29.89 76.6 30.9 76.82 31.95 77.05 C38.29 78.43 44.63 79.75 51 81 C51 80.01 51 79.02 51 78 C29.1 72.44 29.1 72.44 18 72 Z M14 75 C14 75.66 14 76.32 14 77 C17.41 78.34 20.83 79.67 24.25 81 C24.73 81.19 24.73 81.19 27.18 82.16 C28.12 82.52 29.05 82.88 30.02 83.25 C30.87 83.59 31.73 83.92 32.62 84.27 C35 85 35 85 39 85 C39 84.34 39 83.68 39 83 C30.73 79.49 22.9 76.37 14 75 Z M-32.81 77.88 C-33.62 78.14 -34.43 78.41 -35.26 78.69 C-39.22 80.02 -43.14 81.39 -47 83 C-47 83.66 -47 84.32 -47 85 C-41.11 84.44 -36 82.65 -30.56 80.44 C-29.74 80.11 -28.91 79.78 -28.06 79.44 C-26.04 78.63 -24.02 77.82 -22 77 C-22 76.34 -22 75.68 -22 75 C-25.74 75 -29.3 76.68 -32.81 77.88 Z M9 78 C13.17 82.72 18.21 86.5 24 89 C25.32 88.67 26.64 88.34 28 88 C25.05 85.79 22.19 83.79 19.06 81.88 C18.23 81.36 17.39 80.84 16.54 80.3 C13.98 78.99 11.83 78.41 9 78 Z M-24.81 80.75 C-25.85 81.26 -26.89 81.77 -27.96 82.3 C-30.92 83.96 -33.41 85.8 -36 88 C-32 89 -32 89 -28.58 87.2 C-27.34 86.37 -26.09 85.54 -24.81 84.69 C-23.56 83.87 -22.31 83.05 -21.02 82.2 C-18 80 -18 80 -17 78 C-20.02 78 -22.13 79.41 -24.81 80.75 Z M-13 80 C-14.51 81.45 -16 82.91 -17.5 84.38 C-18.34 85.19 -19.17 86 -20.03 86.84 C-22 89 -22 89 -22 91 C-17.6 89.9 -17.2 89.45 -14.75 85.94 C-14.3 85.29 -14.3 85.29 -12 82 C-12.33 81.34 -12.66 80.68 -13 80 Z M4 80 C5.45 84.5 7.75 87.59 11 91 C11.99 91 12.98 91 14 91 C11.6 86.21 9.26 81.75 4 80 Z M-7 81 C-11 88.62 -11 88.62 -11 92 C-10.01 91.67 -9.02 91.34 -8 91 C-6.19 86.94 -5.9 85.41 -7 81 Z M-2 81 C-1.34 84.3 -0.68 87.6 0 91 C0.99 91.33 1.98 91.66 3 92 C2.45 88.05 1.61 84.65 0 81 C-0.66 81 -1.32 81 -2 81 Z M-57 82 C-54.87 86.25 -54.12 87.03 -50 89 C-49.03 89.06 -48.06 89.12 -47.06 89.19 C-42.19 90.48 -40.8 93.89 -38 98 C-37.01 98.99 -36.02 99.98 -35 101 C-34.34 100.67 -33.68 100.34 -33 100 C-34.98 97.69 -36.96 95.38 -39 93 C-35 93 -31 93 -27 93 C-26.77 93.72 -26.55 94.44 -26.31 95.19 C-24.75 98.53 -22.7 100.52 -20 103 C-20.31 102.24 -20.62 101.47 -20.94 100.69 C-21.68 98.81 -22.36 96.91 -23 95 C-22.34 95.33 -21.68 95.66 -21 96 C-18.67 96.04 -16.33 96.04 -14 96 C-13.18 97.65 -13.18 97.65 -9 106 C-7.74 102.23 -8.63 100.63 -10 97 C-8.76 97.19 -7.53 97.37 -6.25 97.56 C-2 98 -2 98 2 97 C1.34 99.97 0.68 102.94 0 106 C3.58 102.42 3.96 99.86 5 95 C5.66 95.33 6.32 95.66 7 96 C9.67 96.04 12.33 96.04 15 96 C14.48 96.78 13.97 97.57 13.44 98.38 C12.96 99.24 12.49 100.11 12 101 C12.16 101.33 12.16 101.33 13 103 C17.88 97.38 17.88 97.38 19 94 C28.75 93 28.75 93 31 93 C30.01 94.32 29.02 95.64 28 97 C28.16 97.33 28.16 97.33 29 99 C34.88 92.25 34.88 92.25 36 90 C37.42 89.71 38.85 89.42 40.31 89.12 C44.79 88.05 46.29 87.54 49 84 C48.84 83.67 48.84 83.67 48 82 C47.4 82.43 46.8 82.87 46.19 83.31 C42.45 85.29 38.81 86.24 34.72 87.25 C32 88 32 88 29.41 89.09 C25.96 90.39 22.66 90 19 90 C17.68 90.66 16.36 91.32 15 92 C12.8 92.26 10.59 92.45 8.38 92.56 C2.19 92.9 2.19 92.9 0 94 C-3.67 94.13 -6.5 94.17 -10 93 C-13 92.73 -15.99 92.56 -18.99 92.38 C-21.99 92 -24.23 91.15 -27 90 C-27.5 90.02 -27.5 90.02 -30 90.12 C-38.99 89.84 -49.01 86 -57 82 Z " fill="#0038A8" transform="translate(261,356)"/>
  <path d="M0 0 C2.58 0.94 5.16 1.8 7.78 2.62 C19.84 6.49 30.66 11.82 41.7 17.99 C43.93 19.2 46.16 20.41 48.39 21.61 C49.81 22.4 51.23 23.18 52.7 23.99 C49.83 26.86 46.94 27.02 43.01 27.93 C35.27 29.7 35.27 29.7 31.73 31.46 C26.23 33.55 20.85 34.04 15.01 34.63 C13.79 34.76 12.58 34.89 11.32 35.03 C8.76 35.3 6.19 35.57 3.63 35.83 C-0.29 36.24 -4.21 36.66 -8.12 37.09 C-10.62 37.36 -13.12 37.62 -15.61 37.88 C-16.78 38.01 -17.95 38.13 -19.15 38.26 C-33.09 39.67 -33.09 39.67 -38.51 35.56 C-39.01 35.06 -39.01 35.06 -41.55 32.55 C-47.19 27.06 -47.19 27.06 -50.3 24.99 C-50.3 24.33 -50.3 23.67 -50.3 22.99 C-48.83 21.68 -47.3 20.44 -45.74 19.24 C-42.54 16.77 -39.53 14.28 -36.61 11.49 C-32.5 8.39 -31.39 8.63 -26.3 8.99 C-21.97 9.61 -17.67 10.38 -13.37 11.18 C-12.14 11.4 -10.9 11.62 -9.63 11.85 C-5.71 12.56 -1.79 13.27 2.14 13.99 C4.8 14.47 7.47 14.95 10.13 15.43 C16.66 16.61 23.18 17.8 29.7 18.99 C30.03 17.67 30.36 16.35 30.7 14.99 C29.43 14.87 28.16 14.75 26.85 14.63 C21.57 14.04 16.47 12.96 11.3 11.77 C10.34 11.56 9.39 11.34 8.4 11.12 C6.39 10.67 4.39 10.21 2.38 9.75 C-0.69 9.05 -3.76 8.36 -6.84 7.67 C-8.79 7.23 -10.75 6.78 -12.7 6.34 C-13.16 6.23 -13.16 6.23 -15.48 5.71 C-19.22 4.85 -22.09 4.13 -25.3 1.99 C-18.06 -8.22 -10.03 -3.75 0 0 Z " fill="#FCD116" transform="translate(152.30224609375,156.0107421875)"/>
  <path d="M0 0 C0.99 0.33 1.98 0.66 3 1 C3 2.32 3 3.64 3 5 C4.64 6.05 6.31 7.04 8 8 C10.24 10.48 10.24 10.48 12.31 13.19 C13.01 14.09 13.71 14.99 14.43 15.92 C14.95 16.61 15.46 17.29 16 18 C17.03 17.07 18.06 16.14 19.12 15.19 C23.93 11.09 28.58 8.39 35 8 C40.6 9 43.99 10.99 48 15 C50.84 19.51 50.51 24.84 50 30 C48.11 35.79 43.59 41.04 39 45 C37.68 45 36.36 45 35 45 C32.75 42 32.75 42 31 39 C32.76 37.31 34.52 35.61 36.27 33.92 C38.78 31.13 39.93 28.67 40.31 24.94 C40 22 40 22 37 19 C33.44 18.25 33.44 18.25 29 19 C25.3 21.63 22.21 24.8 19 28 C17.3 29.55 15.59 31.09 13.88 32.62 C13.46 33 13.46 33 11.36 34.89 C9.3 36.74 7.22 38.56 5.12 40.38 C1.61 43.44 -1.86 46.56 -5.31 49.69 C-6.32 50.6 -7.33 51.51 -8.36 52.45 C-11.84 55.81 -13.82 58.27 -15 63 C-14.19 65.69 -14.19 65.69 -13 68 C-9.73 69.64 -7.65 69.46 -4 69 C-0.75 66.94 2.13 64.55 5 62 C9 64 9 64 10.25 66.62 C10.5 67.41 10.75 68.19 11 69 C1.03 77.98 1.03 77.98 -6.16 78.03 C-7.64 77.86 -9.11 77.68 -10.62 77.5 C-12.1 77.35 -13.58 77.19 -15.1 77.03 C-19.51 75.87 -20.67 74.83 -23 71 C-24.98 67.04 -24.41 62.32 -24 58 C-21.5 51.85 -16.1 45.05 -10 42 C-11.06 37.76 -12.02 36.58 -14.94 33.5 C-17.65 30.62 -19.2 28.61 -21 25 C-21.99 24.67 -22.98 24.34 -24 24 C-23 20 -23 20 -20.44 18.25 C-19.63 17.84 -18.83 17.43 -18 17 C-16 20 -16 20 -16 22 C-14.35 21.67 -12.7 21.34 -11 21 C-10.67 19.02 -10.34 17.04 -10 15 C-10.99 15.33 -11.98 15.66 -13 16 C-13.33 14.68 -13.66 13.36 -14 12 C-12.35 10.68 -10.7 9.36 -9 8 C-8.34 8.33 -7.68 8.66 -7 9 C-7 10.32 -7 11.64 -7 13 C-5.37 14.06 -3.69 15.05 -2 16 C-0.34 17.68 1.26 19.41 2.81 21.19 C3.6 22.09 4.39 22.99 5.21 23.92 C5.5 24.26 5.5 24.26 7 26 C7.66 25.67 8.32 25.34 9 25 C7.67 21.02 5.99 18.89 3 16 C3 15.34 3 14.68 3 14 C1.68 14.33 0.36 14.66 -1 15 C-1 14.01 -1 13.02 -1 12 C-1.31 10.33 -1.64 8.66 -2 7 C-2.99 6.67 -3.98 6.34 -5 6 C-3 2 -3 2 0 0 Z M-8 22 C-8.5 22.66 -8.5 22.66 -11 26 C-9.85 27.49 -9.85 27.49 -4 35 C-2.68 34.67 -1.36 34.34 0 34 C0 29.44 -0.49 28.95 -3.44 25.75 C-4.08 25.04 -4.71 24.34 -5.37 23.61 C-7 22 -7 22 -8 22 Z " fill="#0038A8" transform="translate(322,197)"/>
  <path d="M0 0 C8.73 8.53 16.21 18.16 23.58 27.86 C25.94 30.92 28.36 33.9 30.81 36.88 C34.06 40.81 37.11 44.8 40 49 C39.1 48.95 38.21 48.91 37.28 48.86 C15.55 48.23 -2.54 56.73 -20.02 69 C-23 71 -23 71 -26 72 C-27.98 69.36 -29.96 66.72 -32 64 C-30.1 60.19 -28.42 58.2 -25.5 55.19 C-12.76 41.33 -1.97 23.64 -0.38 4.5 C-0.25 3.01 -0.13 1.53 0 0 Z " fill="#0038A8" transform="translate(362,138)"/>
  <path d="M0 0 C4.27 0.47 8.53 0.94 12.79 1.48 C22.85 2.73 32.87 3.52 43 4 C43 7.63 43 11.26 43 15 C42.34 15.33 41.68 15.66 41 16 C40.95 18.62 40.91 21.25 40.88 23.88 C40.85 25.34 40.83 26.8 40.8 28.3 C41 32 41 32 43 34 C43.2 37.48 43.2 37.48 43.12 41.62 C43.11 43 43.09 44.37 43.07 45.79 C43.05 46.85 43.02 47.91 43 49 C33.17 48.76 23.75 48 14.12 46.06 C13.28 45.89 12.43 45.72 11.55 45.55 C7.68 44.73 4.57 43.78 1 42 C0.97 40.02 0.95 38.04 0.94 36.06 C0.93 34.96 0.91 33.86 0.9 32.72 C1 30 1 30 2 29 C2.13 26.19 2.18 23.38 2.19 20.56 C2.2 19.02 2.22 17.47 2.23 15.88 C2 12 2 12 0 10 C-0.27 6.65 -0.09 3.37 0 0 Z " fill="#0038A8" transform="translate(189,220)"/>
  <path d="M0 0 C0 3.63 0 7.26 0 11 C-0.99 11.33 -1.98 11.66 -3 12 C-2.83 14.97 -2.83 14.97 -2 30 C-1.34 30.33 -0.68 30.66 0 31 C0 34.96 0 38.92 0 43 C-5.01 45.12 -7.77 46.15 -13 45 C-16 44.81 -19 44.69 -22 44.62 C-23.57 44.58 -25.13 44.53 -26.75 44.48 C-31.78 45.1 -32.66 46.42 -36 50 C-39.31 50.31 -39.31 50.31 -42 50 C-42.05 47.54 -42.09 45.08 -42.12 42.62 C-42.15 41.26 -42.17 39.89 -42.2 38.48 C-42 35 -42 35 -40 33 C-39.73 29.38 -39.73 29.38 -39.75 25 C-39.75 24.28 -39.75 24.28 -39.73 20.62 C-40 17 -40 17 -42 15 C-42.27 11.65 -42.09 8.37 -42 5 C-41.23 4.92 -40.47 4.84 -39.68 4.76 C-36.16 4.38 -32.64 4 -29.12 3.62 C-27.92 3.5 -26.72 3.37 -25.48 3.24 C-20.07 2.65 -14.75 2.02 -9.43 0.9 C-5 0 -5 0 0 0 Z " fill="#0038A8" transform="translate(278,219)"/>
  <path d="M0 0 C-0.53 5.95 -0.53 5.95 -3 9 C-10.44 11.75 -18.08 13 -26 13 C-25.83 13.66 -25.83 13.66 -25 17 C-22.03 16.67 -22.03 16.67 -7 15 C-8.73 19.32 -10.06 21.59 -12.94 25.06 C-15.36 28.01 -17.71 30.95 -20 34 C-20.99 33.84 -20.99 33.84 -26 33 C-26 34.65 -26 36.3 -26 38 C-27.03 37.73 -28.06 37.46 -29.12 37.19 C-33 37 -33 37 -36.12 39.12 C-37.07 40.07 -38.02 41.02 -39 42 C-44 47 -44 47 -46.75 49.12 C-49 51 -49 51 -50 54 C-53.06 55.19 -53.06 55.19 -56 56 C-55.83 55.07 -55.67 54.14 -55.5 53.19 C-53.95 40.24 -53.95 40.24 -56.31 35.19 C-60.5 31.78 -65.19 29.41 -70 27 C-66.53 23.53 -62.76 21.64 -58.44 19.44 C-51.5 15.85 -44.63 12.18 -37.81 8.38 C-37.42 8.16 -37.42 8.16 -35.44 7.05 C-33.62 6.03 -31.81 5.02 -30 4 C-29.01 4.99 -28.02 5.98 -27 7 C-19.82 6.04 -13.08 3.41 -6.26 1.02 C-3 0 -3 0 0 0 Z " fill="#FCD116" transform="translate(354,156)"/>
  <path d="M0 0 C0.99 0.99 1.98 1.98 3 3 C2.23 3.16 2.23 3.16 -1.68 3.95 C-3.74 4.38 -5.81 4.82 -7.88 5.25 C-8.89 5.45 -9.9 5.66 -10.95 5.87 C-17.67 7.29 -23.68 9.3 -30 12 C-30.99 12.33 -31.98 12.66 -33 13 C-33.12 15.75 -33.12 15.75 -32 19 C-6.67 32.43 33.31 29.32 60.12 22.06 C65.04 20.46 69.62 18.75 74 16 C74.33 14.68 74.66 13.36 75 12 C71.95 8.95 70.46 8.25 66.5 6.94 C63.24 5.85 60.89 4.92 58 3 C59.88 1.31 59.88 1.31 63 0 C69.96 1.45 75.27 3.81 81 8 C83.03 12.05 83.54 13.61 83 18 C80.02 23.55 74.69 25.89 69 28 C37.61 37.07 -4.61 41.72 -35 27 C-39.7 23.61 -39.7 23.61 -41 21 C-41.46 16.9 -41.56 14.78 -39.12 11.38 C-29.7 4.21 -11.86 -3.85 0 0 Z " fill="#0038A8" transform="translate(214,185)"/>
  <path d="M0 0 C10.31 -0.17 20.43 0.27 30.69 1.25 C32.12 1.38 33.55 1.52 35.02 1.66 C116.64 9.64 116.64 9.64 127 20 C127.04 22.67 127.04 25.33 127 28 C121.04 27.31 115.39 25.83 109.62 24.25 C73.55 14.62 37.15 11.25 0 9 C0 6.03 0 3.06 0 0 Z " fill="#0038A8" transform="translate(269,274)"/>
  <path d="M0 0 C0 2.97 0 5.94 0 9 C-1.08 9.07 -2.17 9.14 -3.29 9.21 C-41.25 11.7 -78.61 15.51 -115.3 26.17 C-119.03 27.25 -122.09 28 -126 28 C-126 25.36 -126 22.72 -126 20 C-116.96 16.44 -107.63 14.32 -98.19 12.12 C-97.24 11.9 -96.29 11.68 -95.31 11.45 C-64.17 4.23 -32.05 -0.77 0 0 Z " fill="#0038A8" transform="translate(243,274)"/>
  <path d="M0 0 C5.7 0.43 10.04 1.08 15 4 C14.42 10.92 12.04 17.05 9.62 23.5 C9.19 24.68 8.75 25.85 8.3 27.07 C3.89 38.72 -1.4 49.88 -7 61 C-11.14 61 -12.43 60.47 -15.94 58.56 C-19.32 56.73 -22.19 55.59 -26 55 C-25.79 54.66 -25.79 54.66 -24.75 52.94 C-16.82 39.63 -10.37 25.92 -4.76 11.5 C-3.25 7.63 -1.66 3.81 0 0 Z " fill="#0038A8" transform="translate(444,277)"/>
  <path d="M0 0 C2.46 5.3 4.6 10.62 6.56 16.12 C9.23 23.32 12.33 30.25 15.62 37.19 C16.09 38.18 16.56 39.17 17.04 40.19 C19.32 44.92 21.57 48.98 25 53 C25 53.66 25 54.32 25 55 C24.25 55.25 23.5 55.51 22.73 55.77 C21.75 56.11 20.76 56.46 19.75 56.81 C18.78 57.15 17.8 57.49 16.8 57.83 C14 59 14 59 10 62 C7 61 7 61 4.62 56.75 C3.69 54.84 2.78 52.92 1.88 51 C1.39 49.98 0.91 48.97 0.42 47.92 C-5.94 34.18 -11.6 19.77 -15 5 C-9.74 1.29 -6.56 0 0 0 Z " fill="#0038A8" transform="translate(68,277)"/>
  <path d="M0 0 C1.97 1.97 1.27 5.59 1.31 8.19 C1.24 25.56 -1.78 42.96 -5 60 C-9 59 -9 59 -11.31 58 C-14.52 56.81 -17.61 56.4 -21 56 C-20.73 54.58 -20.46 53.15 -20.19 51.69 C-19.79 49.46 -19.39 47.23 -19 45 C-18.75 43.64 -18.49 42.28 -18.23 40.88 C-16.41 30.44 -15.58 20.34 -15.47 9.75 C-15.41 7.16 -15.22 4.58 -15 2 C-9.87 -1.42 -5.98 -1.15 0 0 Z " fill="#0038A8" transform="translate(468,211)"/>
  <path d="M0 0 C0.04 1.36 0.07 2.71 0.11 4.11 C0.59 18.58 1.88 32.67 5.1 46.82 C6 51 6 51 6 55 C4.08 55.51 2.17 56 0.25 56.5 C-0.82 56.78 -1.88 57.06 -2.98 57.34 C-6 58 -6 58 -10 58 C-16.62 18.81 -16.62 18.81 -16 0 C-9.97 -2.31 -6.17 -1.53 0 0 Z " fill="#0038A8" transform="translate(59,212)"/>
  <path d="M0 0 C3.15 1.66 6.12 3.36 9.12 5.25 C10.02 5.8 10.91 6.35 11.83 6.91 C14.56 8.6 17.28 10.3 20 12 C21.44 12.89 22.87 13.77 24.31 14.66 C31.42 19.08 38.45 23.61 45.39 28.3 C48.55 30.42 51.71 32.53 54.86 34.65 C56.45 35.71 58.03 36.78 59.6 37.86 C61.83 39.38 64.08 40.89 66.33 42.39 C67.64 43.28 68.95 44.17 70.29 45.08 C74.34 47.18 76.54 47.14 81 47 C85 50 85 50 85.94 52.38 C86.02 55.92 85.36 57.35 83 60 C79.56 61.06 79.56 61.06 76 61 C73.62 59.44 73.62 59.44 72 57 C71.93 56.48 71.93 56.48 71.56 53.88 C71.38 52.93 71.19 51.98 71 51 C68.82 50.02 68.82 50.02 66 49 C64.06 47.99 62.14 46.94 60.24 45.88 C59.13 45.26 58.02 44.64 56.88 44 C55.7 43.34 54.52 42.68 53.31 42 C52.7 41.66 52.7 41.66 49.62 39.94 C44.46 37.06 39.31 34.18 34.17 31.28 C23.85 25.49 13.4 20.02 2.86 14.64 C1.74 14.07 0.62 13.5 -0.53 12.91 C-1.54 12.39 -2.54 11.88 -3.58 11.35 C-6 10 -6 10 -8 8 C-8.31 5 -8.31 5 -8 2 C-5 0 -5 0 0 0 Z " fill="#0038A8" transform="translate(150,135)"/>
  <path d="M0 0 C1.82 2.06 1.82 2.06 3.56 5 C6.84 10.23 10.29 15.26 14 20.19 C14.51 20.87 15.02 21.55 15.55 22.25 C19.46 27.41 23.64 32.22 28 37 C28 37.33 28 37.66 28 38 C7.34 41.01 7.34 41.01 0.54 36.3 C-3.67 31.95 -6.75 26.91 -9.59 21.59 C-11.55 18 -13.82 14.62 -16.09 11.22 C-16.24 10.86 -16.24 10.86 -17 9 C-13.54 2.09 -7.43 0 0 0 Z " fill="#0038A8" transform="translate(95,335)"/>
  <path d="M0 0 C5.14 0.69 8.58 2.26 13 5 C12.61 6.16 12.22 7.31 11.81 8.5 C11.21 10.33 10.6 12.17 10 14 C9.6 15.19 9.2 16.37 8.79 17.6 C4.14 31.86 1.86 46.15 0 61 C-4.95 60.67 -9.9 60.34 -15 60 C-12.03 39.56 -7.06 19.42 0 0 Z " fill="#0038A8" transform="translate(59,140)"/>
  <path d="M0 0 C6.94 0.66 10.47 1.92 16 6 C16.17 6.5 16.17 6.5 17 9 C15.66 11.5 15.66 11.5 13.62 14.44 C13.26 14.97 13.26 14.97 11.4 17.66 C7.68 22.84 3.9 27.95 0 33 C-0.5 33.93 -0.99 34.87 -1.5 35.83 C-5.75 39.52 -10.84 38.52 -16.25 38.31 C-17.38 38.29 -18.5 38.27 -19.66 38.24 C-22.44 38.19 -25.22 38.1 -28 38 C-27.14 37.01 -26.28 36.02 -25.39 35 C-22.03 31.08 -18.83 27.04 -15.69 22.94 C-15.13 22.21 -14.57 21.48 -13.99 20.72 C-8.93 14.05 -4.38 7.14 0 0 Z " fill="#0038A8" transform="translate(417,335)"/>
  <path d="M0 0 C4.53 12.67 8.54 25.29 11.44 38.44 C11.68 39.55 11.93 40.67 12.18 41.82 C13.47 47.88 14.44 53.84 15 60 C10.05 60.33 5.1 60.66 0 61 C-0.11 59.95 -0.22 58.89 -0.33 57.81 C-2.1 41.68 -4.52 25.23 -11.21 10.29 C-12 8 -12 8 -11 4 C-3.11 0 -3.11 0 0 0 Z " fill="#0038A8" transform="translate(453,140)"/>
  <path d="M0 0 C17.26 4.24 30.24 21.2 39.28 35.64 C50.14 54.34 50.14 54.34 49 61 C48.01 61.66 47.02 62.32 46 63 C40.79 56.81 35.63 50.6 30.7 44.19 C28.91 41.88 27.08 39.59 25.25 37.31 C22.06 33.33 18.9 29.33 15.75 25.31 C9.88 17.83 3.95 10.41 -2 3 C-1.34 2.01 -0.68 1.02 0 0 Z " fill="#0038A8" transform="translate(361,127)"/>
  <path d="M0 0 C2.37 0.76 2.37 0.76 4.37 2.76 C4.44 5.1 4.44 5.1 3.37 7.76 C0.4 9.98 0.4 9.98 -3.69 12.26 C-4.44 12.68 -5.18 13.1 -5.95 13.54 C-12.4 17.16 -18.93 20.63 -25.44 24.13 C-33.33 28.39 -41.19 32.68 -48.94 37.2 C-49.78 37.67 -50.61 38.14 -51.47 38.63 C-56.21 41.43 -58.6 43.64 -60.63 48.76 C-62.94 50.76 -62.94 50.76 -65.63 51.76 C-68.88 51.07 -68.88 51.07 -71.63 49.76 C-73.05 46.92 -72.94 44.9 -72.63 41.76 C-71.07 39.38 -71.07 39.38 -68.63 37.76 C-67.65 37.87 -66.67 37.97 -65.66 38.08 C-59.57 37.59 -55.68 34.36 -50.75 30.95 C-48.69 29.56 -46.62 28.17 -44.56 26.78 C-43.55 26.09 -42.54 25.41 -41.49 24.7 C-35.66 20.75 -29.73 16.97 -23.8 13.17 C-21.37 11.59 -18.95 9.99 -16.53 8.38 C-14.82 7.26 -13.1 6.13 -11.38 5.01 C-10.58 4.47 -9.78 3.93 -8.96 3.38 C-3.28 -0.3 -3.28 -0.3 0 0 Z " fill="#0038A8" transform="translate(326.6279296875,145.2412109375)"/>
  <path d="M0 0 C0.56 0.05 0.56 0.05 3.41 0.31 C3.83 0.35 3.83 0.35 5.94 0.56 C6.27 1.88 6.6 3.2 6.94 4.56 C6.61 4.89 6.28 5.22 5.94 5.56 C5.78 7.63 5.69 9.71 5.62 11.79 C5.58 13.05 5.54 14.31 5.49 15.6 C5.45 16.93 5.42 18.26 5.38 19.62 C5.33 20.96 5.29 22.29 5.24 23.66 C5.14 26.96 5.04 30.26 4.94 33.56 C-1.66 33.56 -8.26 33.56 -15.06 33.56 C-15.39 22.67 -15.72 11.78 -16.06 0.56 C-10.05 -0.11 -5.76 -0.55 0 0 Z " fill="#0038A8" transform="translate(107.0625,288.4375)"/>
  <path d="M0 0 C7.26 0 14.52 0 22 0 C22.33 1.32 22.66 2.64 23 4 C22.67 4.33 22.34 4.66 22 5 C21.84 7.07 21.75 9.15 21.68 11.22 C21.64 12.48 21.6 13.74 21.56 15.04 C21.52 16.37 21.48 17.7 21.44 19.06 C21.39 20.39 21.35 21.72 21.31 23.1 C21.2 26.4 21.1 29.7 21 33 C14.4 33 7.8 33 1 33 C0.67 22.11 0.34 11.22 0 0 Z " fill="#0038A8" transform="translate(399,289)"/>
  <path d="M0 0 C15.1 5.59 24.2 15.92 30.96 30.13 C34.62 38.24 34.62 38.24 36 42 C35.84 42.33 35.84 42.33 35 44 C34.13 43.79 33.27 43.59 32.38 43.38 C29 43 29 43 26.32 43.96 C22.27 45.23 18.79 45.27 14.56 45.25 C13.84 45.25 13.84 45.25 10.19 45.27 C6.16 45.01 2.82 44.27 -1 43 C7.19 36.85 15.02 36.08 25 37 C29.38 38.5 29.38 38.5 32 40 C28.87 36.66 25.46 34.11 21.75 31.44 C11.55 23.64 5.43 13.53 0 2 C0 1.34 0 0.68 0 0 Z " fill="#0038A8" transform="translate(15,244)"/>
  <path d="M0 0 C0.66 0 1.32 0 2 0 C4.24 2.9 6.36 5.8 8.44 8.81 C8.75 9.26 8.75 9.26 10.32 11.51 C16.41 20.38 21.79 29.6 27 39 C23 41 19 43 15 45 C14.44 43.9 13.89 42.8 13.31 41.67 C7.35 30.06 0.69 19.78 -8 10 C-6.04 6.08 -4.14 3.97 -1 1 C-0.67 0.67 -0.34 0.34 0 0 Z " fill="#0038A8" transform="translate(422,92)"/>
  <path d="M0 0 C0.99 0.66 1.98 1.32 3 2 C3 2.66 3 3.32 3 4 C4.32 4.66 5.64 5.32 7 6 C7.66 6.99 8.32 7.98 9 9 C8.31 9.83 7.62 10.65 6.91 11.5 C-0.22 20.27 -5.66 29.04 -11 39 C-11.99 40.67 -12.98 42.34 -14 44 C-14.35 43.86 -14.35 43.86 -16.12 43.12 C-19.05 41.98 -22.01 40.97 -25 40 C-22.69 30.76 -16.74 22.96 -11.44 15.19 C-10.88 14.38 -10.33 13.56 -9.76 12.73 C-6.7 8.3 -3.53 4.08 0 0 Z " fill="#0038A8" transform="translate(89,92)"/>
  <path d="M0 0 C0.66 0.33 1.32 0.66 2 1 C-4.46 21.17 -14.64 36.49 -30 51 C-30.33 51 -30.66 51 -31 51 C-30.39 37.89 -26.35 26.17 -18 16 C-17.24 15.03 -16.49 14.06 -15.71 13.06 C-12.78 9.76 -9.72 7.26 -6.19 4.62 C-5.03 3.75 -3.86 2.88 -2.67 1.98 C-1.79 1.32 -0.91 0.67 0 0 Z " fill="#0038A8" transform="translate(98,208)"/>
  <path d="M0 0 C13.26 6.63 23.62 18.27 29 32 C33 46.17 33 46.17 33 51 C15.3 42.15 6.21 19.68 0 2 C0 1.34 0 0.68 0 0 Z " fill="#0038A8" transform="translate(413,208)"/>
  <path d="M0 0 C0.66 0 1.32 0 2 0 C2.12 5.75 2.21 11.49 2.27 17.24 C2.3 19.2 2.33 21.15 2.38 23.11 C2.44 25.92 2.47 28.73 2.49 31.54 C2.51 32.41 2.54 33.29 2.57 34.18 C2.57 38.42 2.32 40.6 -0.33 43.98 C-6.96 49 -6.96 49 -11 49 C-11.05 47.21 -11.09 45.42 -11.12 43.62 C-11.15 42.63 -11.17 41.63 -11.2 40.6 C-11 38 -11 38 -9 36 C-8.8 33.17 -8.74 30.33 -8.75 27.5 C-8.74 25.96 -8.74 24.43 -8.73 22.84 C-9 19 -9 19 -11 17 C-11.2 14.18 -11.2 14.18 -11.12 10.88 C-11.11 9.78 -11.09 8.68 -11.07 7.55 C-11.05 6.71 -11.02 5.87 -11 5 C-10.64 4.86 -10.64 4.86 -8.85 4.16 C-8.39 3.98 -8.39 3.98 -6.06 3.06 C-5.15 2.7 -4.23 2.34 -3.29 1.97 C-1 1 -1 1 0 0 Z " fill="#0038A8" transform="translate(292,212)"/>
  <path d="M0 0 C7.38 3.13 14.98 2.4 22.8 1.57 C28.3 1.07 32.53 1.57 37.8 3.19 C38.13 3.52 38.13 3.52 39.8 5.19 C38.54 5.31 37.27 5.43 35.96 5.56 C34.27 5.73 32.57 5.9 30.87 6.07 C30.45 6.11 30.45 6.11 28.35 6.3 C22.71 6.87 17.33 7.92 11.8 9.19 C5.37 9.8 1.36 9.12 -4.63 6.75 C-13.18 3.63 -21.48 3.6 -30.48 3.64 C-38.01 3.6 -43.41 2.55 -50.2 -0.81 C-50.53 -1.47 -50.86 -2.13 -51.2 -2.81 C-50.16 -2.71 -49.12 -2.62 -48.05 -2.52 C-35.25 -1.5 -35.25 -1.5 -30.13 -2.75 C-19.5 -5.31 -9.94 -4.44 0 0 Z " fill="#0038A8" transform="translate(153.1953125,401.80859375)"/>
  <path d="M0 0 C5.24 0.83 10.53 0.6 15.82 0.45 C12.1 4.17 9.12 5.26 3.9 5.68 C3.4 5.68 3.4 5.68 0.86 5.68 C0.29 5.69 0.29 5.69 -2.55 5.72 C-3.73 5.73 -4.9 5.75 -6.12 5.76 C-15.41 5.95 -23.34 6.62 -31.97 10.39 C-38.94 12.68 -45.93 11.31 -52.99 10.01 C-60.07 8.76 -67.01 7.91 -74.18 7.45 C-70.37 3.63 -64.36 3.83 -59.18 3.45 C-56.18 3.61 -53.18 3.82 -50.18 4.07 C-41.93 4.68 -35.81 3.46 -28.18 0.45 C-18.98 -3.06 -9.46 -2 0 0 Z " fill="#0038A8" transform="translate(393.1796875,399.5546875)"/>
  <path d="M0 0 C1.5 0.09 3 0.18 4.55 0.27 C8.25 0.62 8.25 0.62 10.25 1.62 C9.92 12.85 9.59 24.06 9.25 35.62 C3.62 29.99 3.62 29.99 1.13 26.55 C0.59 25.81 0.05 25.06 -0.51 24.29 C-1.06 23.51 -1.62 22.74 -2.19 21.94 C-2.76 21.14 -3.33 20.34 -3.92 19.52 C-14.75 4.3 -14.75 4.3 -14.75 0.62 C-9.72 -0.45 -5.12 -0.33 0 0 Z " fill="#0038A8" transform="translate(108.75,325.375)"/>
  <path d="M0 0 C-3.97 8.32 -8.8 15.78 -14.25 23.19 C-14.86 24.03 -15.48 24.86 -16.11 25.73 C-20.6 31.74 -20.6 31.74 -24 34 C-24.2 28.52 -24.38 23.04 -24.56 17.56 C-24.62 16 -24.67 14.43 -24.73 12.82 C-24.78 11.33 -24.83 9.85 -24.88 8.32 C-24.93 6.94 -24.97 5.56 -25.02 4.14 C-25 1 -25 1 -24 0 C-15.95 -1.01 -8 -1.76 0 0 Z " fill="#0038A8" transform="translate(419,326)"/>
  <path d="M0 0 C-12.52 14.16 -25.1 24.64 -42 33 C-42.66 33 -43.32 33 -44 33 C-42.52 26.74 -38.8 22.06 -35 17 C-34.37 16.15 -33.74 15.29 -33.09 14.41 C-26.35 6.63 -10.33 -2.58 0 0 Z " fill="#0038A8" transform="translate(111,137)"/>
  <path d="M0 0 C15.74 9.68 27.48 19.03 33.38 37.25 C33.58 38.16 33.79 39.06 34 40 C33.01 40.66 32.02 41.32 31 42 C19.17 33.31 12.25 23.74 5 11 C4.72 10.52 4.72 10.52 3.32 8.11 C0 2.3 0 2.3 0 0 Z " fill="#0038A8" transform="translate(386,51)"/>
  <path d="M0 0 C16.33 2.99 27.26 9.68 37.05 23.04 C38.97 25.96 40.62 28.79 42 32 C41.83 32.33 41.83 32.33 41 34 C25.03 25.08 11.81 16.32 0 2 C0 1.34 0 0.68 0 0 Z " fill="#0038A8" transform="translate(404,137)"/>
  <path d="M0 0 C0.33 0.66 0.66 1.32 1 2 C-4.98 16.49 -13.27 30.53 -26 40 C-26.5 40.16 -26.5 40.16 -29 41 C-31 37 -31 37 -30.13 33.86 C-23.35 18.49 -14.11 8.96 0 0 Z " fill="#0038A8" transform="translate(123,52)"/>
  <path d="M0 0 C4 2 8 4 12 6 C12.05 7.79 12.09 9.58 12.12 11.38 C12.15 12.37 12.17 13.37 12.2 14.4 C12 17 12 17 10 19 C9.73 22.62 9.73 22.62 9.75 27 C9.74 28.44 9.74 29.89 9.73 31.38 C10 35 10 35 12 37 C12.27 40.35 12.09 43.63 12 47 C7.44 45.86 5.43 44.13 2 41 C0.32 37.63 0.77 34 0.68 30.27 C0.66 29.41 0.64 28.55 0.62 27.66 C0.56 24.9 0.5 22.14 0.44 19.38 C0.39 17.51 0.35 15.64 0.31 13.77 C0.2 9.18 0.1 4.59 0 0 Z " fill="#0038A8" transform="translate(174,213)"/>
  <path d="M0 0 C0.66 0.33 1.32 0.66 2 1 C-6.46 17.68 -15.16 28.94 -31 39 C-31.33 38.34 -31.66 37.68 -32 37 C-26.97 22.4 -20.14 12.08 -7 4 C-6.34 3.59 -6.34 3.59 -3 1.5 C-2.01 1 -1.02 0.51 0 0 Z " fill="#0038A8" transform="translate(496,244)"/>
  <path d="M0 0 C8.92 4.46 13.3 13.1 17 22 C19.1 28.86 19.73 35.86 19 43 C18.34 43.99 17.68 44.98 17 46 C7.12 31.28 2.63 17.44 0 0 Z " fill="#0038A8" transform="translate(30,124)"/>
  <path d="M0 0 C3.36 13.43 -5.8 30.73 -12.57 42.04 C-14 44 -14 44 -17 46 C-19.18 33.69 -17.05 21.38 -10 11 C-6.84 7.15 -3.51 3.53 0 0 Z " fill="#0038A8" transform="translate(481,124)"/>
  <path d="M0 0 C0.33 0.17 0.33 0.17 2 1 C-8.27 9.98 -17.93 10.52 -31 10 C-33.8 9.55 -33.8 9.55 -36 9 C-42.18 7.45 -47.82 7.7 -54 9 C-58.7 9.25 -60.7 9.15 -65 7 C-59.51 1.51 -50.58 0.7 -43.19 0.56 C-36.38 0.72 -30.1 1.92 -23.47 3.39 C-14.98 4.89 -7.96 2.78 0 0 Z " fill="#0038A8" transform="translate(378,416)"/>
  <path d="M0 0 C0.71 0.15 0.71 0.15 4.31 0.94 C12.78 2.57 19.72 3.45 28.25 1.56 C40.7 -1.17 52.14 -1.05 64 4 C64.33 4.33 64.33 4.33 66 6 C60.59 8.7 56.8 8.45 51 7 C45.93 6.8 41.87 6.79 36.94 8 C26.21 10.61 15.36 10.01 5.32 5.48 C3 4 3 4 0 0 Z " fill="#0038A8" transform="translate(134,417)"/>
  <path d="M0 0 C0.16 0.33 0.16 0.33 1 2 C0.19 1.98 -0.62 1.97 -1.46 1.95 C-5.2 1.89 -8.94 1.85 -12.69 1.81 C-13.96 1.79 -15.24 1.76 -16.55 1.74 C-24.1 1.68 -30.73 2.42 -38.04 4.31 C-48.7 6.8 -60.36 6.27 -70 1 C-70.99 0.01 -71.98 -0.98 -73 -2 C-72.02 -1.84 -71.03 -1.68 -70.02 -1.52 C-59.62 -0.18 -49.35 -0.58 -39.06 -2.5 C-25.71 -4.94 -12.46 -6.05 0 0 Z " fill="#0038A8" transform="translate(161,383)"/>
  <path d="M0 0 C10.17 1.51 20.38 1.09 30.54 -0.33 C20.44 7.25 9.91 8.13 -2.46 6.67 C-4.53 6.19 -6.59 5.68 -8.64 5.16 C-15.91 3.37 -22.83 3.33 -30.27 3.48 C-30.91 3.49 -30.91 3.49 -34.14 3.53 C-37.25 3.56 -40.35 3.61 -43.46 3.67 C-32.64 -7.15 -13.41 -2.49 0 0 Z " fill="#0038A8" transform="translate(394.4609375,381.328125)"/>
  <path d="M0 0 C0 3.63 0 7.26 0 11 C-3.87 12.15 -7.75 13.3 -11.62 14.44 C-12.72 14.76 -13.81 15.09 -14.94 15.42 C-16 15.74 -17.07 16.05 -18.16 16.37 C-19.14 16.66 -20.11 16.95 -21.12 17.24 C-24.06 18.02 -26.99 18.54 -30 19 C-30 15.37 -30 11.74 -30 8 C-5.15 0 -5.15 0 0 0 Z " fill="#0038A8" transform="translate(147,298)"/>
  <path d="M0 0 C1 1 1 1 1.1 3.29 C1.07 5.86 1.03 8.43 1 11 C-2.61 11.81 -6.04 12.18 -9.74 12.32 C-10.8 12.36 -11.87 12.4 -12.97 12.44 C-13.52 12.46 -13.52 12.46 -16.31 12.56 C-16.87 12.58 -16.87 12.58 -19.71 12.69 C-22.48 12.8 -25.24 12.9 -28 13 C-28 9.37 -28 5.74 -28 2 C-24.46 1.66 -20.92 1.33 -17.38 1 C-16.38 0.9 -15.38 0.81 -14.35 0.71 C-4.25 -0.23 -4.25 -0.23 0 0 Z " fill="#0038A8" transform="translate(242,286)"/>
  <path d="M0 0 C0 3.63 0 7.26 0 11 C-21.54 16 -21.54 16 -29 16 C-29 12.7 -29 9.4 -29 6 C-25.69 4.59 -22.56 3.6 -19.02 2.93 C-18.11 2.76 -17.19 2.58 -16.24 2.4 C-15.77 2.32 -15.77 2.32 -13.38 1.88 C-12.42 1.69 -11.47 1.51 -10.48 1.32 C-3.42 0 -3.42 0 0 0 Z " fill="#0038A8" transform="translate(179,292)"/>
  <path d="M0 0 C0 3.63 0 7.26 0 11 C-9.72 12.67 -19.12 14.15 -29 14 C-29.1 6.29 -29.1 6.29 -29 4 C-27.2 2.2 -24.47 2.51 -22.03 2.25 C-20.82 2.11 -19.61 1.98 -18.36 1.85 C-17.09 1.71 -15.81 1.58 -14.5 1.44 C-13.23 1.3 -11.95 1.16 -10.64 1.02 C-1.22 0 -1.22 0 0 0 Z " fill="#0038A8" transform="translate(211,288)"/>
  <path d="M0 0 C3.41 0.07 6.79 0.19 10.19 0.38 C11.13 0.42 12.08 0.46 13.06 0.51 C17.77 0.74 22.36 1.08 27 2 C27 5.63 27 9.26 27 13 C22.52 12.86 18.04 12.71 13.56 12.56 C12.28 12.52 11 12.48 9.69 12.44 C8.47 12.4 7.26 12.36 6 12.32 C5.44 12.3 5.44 12.3 2.59 12.21 C0 12 0 12 -1 11 C-1.1 9.34 -1.13 7.67 -1.12 6 C-1.13 5.09 -1.13 4.19 -1.13 3.25 C-1 1 -1 1 0 0 Z " fill="#0038A8" transform="translate(270,286)"/>
  <path d="M0 0 C9.5 1.12 18.72 2.65 28 5 C28 8.63 28 12.26 28 16 C18.6 14.65 9.3 12.93 0 11 C0 7.37 0 3.74 0 0 Z " fill="#0038A8" transform="translate(333,292)"/>
  <path d="M0 0 C3.39 0.23 6.75 0.53 10.12 0.88 C10.59 0.92 10.59 0.92 12.97 1.15 C18 1.65 23 2.24 28 3 C28 6.63 28 10.26 28 14 C18.24 13.48 8.65 12.53 -1 11 C-1.1 3.29 -1.1 3.29 -1 1 C-0.67 0.67 -0.34 0.34 0 0 Z " fill="#0038A8" transform="translate(301,288)"/>
  <path d="M0 0 C-0.68 2.38 -0.68 2.38 -2 5 C-4.3 6.18 -4.3 6.18 -7.16 6.95 C-8.2 7.24 -9.24 7.53 -10.32 7.83 C-10.86 7.97 -10.86 7.97 -13.62 8.69 C-14.69 8.98 -15.76 9.28 -16.86 9.58 C-19.9 10.41 -22.95 11.21 -26 12 C-27.52 12.4 -29.04 12.8 -30.61 13.21 C-34.05 14.01 -35.74 14.32 -39 13 C-41.81 10.56 -41.81 10.56 -44 8 C-44 7.34 -44 6.68 -44 6 C-38.86 5.14 -33.72 4.28 -28.58 3.44 C-26.83 3.15 -25.08 2.86 -23.34 2.56 C-20.82 2.14 -18.3 1.73 -15.78 1.31 C-14.26 1.06 -12.75 0.81 -11.19 0.55 C-7.4 0.05 -3.82 -0.11 0 0 Z " fill="#FCD116" transform="translate(171,195)"/>
  <path d="M0 0 C2.91 0.54 5.8 1.16 8.69 1.81 C10.28 2.17 11.87 2.53 13.51 2.89 C17.1 3.78 20.53 4.76 24 6 C24 9.63 24 13.26 24 17 C15.54 15.44 7.29 13.28 -1 11 C-1.1 3.29 -1.1 3.29 -1 1 C-0.67 0.67 -0.34 0.34 0 0 Z " fill="#0038A8" transform="translate(365,298)"/>
  <path d="M0 0 C-4.25 8.5 -12.51 14.61 -21.21 18.17 C-25.81 19.54 -30.21 19.81 -35 20 C-27.87 9.4 -17.8 3.34 -5.33 0.36 C-3 0 -3 0 0 0 Z " fill="#0038A8" transform="translate(104,242)"/>
  <path d="M0 0 C15.05 1.35 26.13 7.7 36 19 C35.67 19.66 35.34 20.32 35 21 C19.81 18.25 10.25 12.64 0 1 C0 0.67 0 0.34 0 0 Z " fill="#0038A8" transform="translate(408,242)"/>
  <path d="M0 0 C2.8 1.4 5.57 2.86 8.31 4.38 C18.79 9.6 30.48 11.52 42 13 C42 13.33 42 13.66 42 14 C37.36 14.65 32.71 15.24 28.06 15.81 C26.75 16 25.45 16.18 24.1 16.37 C15.58 17.38 10.99 17.12 4 12 C0.66 8.91 0.05 7.76 -0.25 3.19 C-0.17 2.14 -0.09 1.08 0 0 Z " fill="#0038A8" transform="translate(175,258)"/>
  <path d="M0 0 C9.58 2.47 18.21 3.08 28.12 2.5 C20.25 8.41 11.64 8.3 2.12 7.5 C-1.46 6.65 -4.92 5.59 -8.42 4.46 C-13.84 2.95 -19.27 2.69 -24.88 2.5 C-24.88 1.51 -24.88 0.52 -24.88 -0.5 C-15.68 -3.08 -9.13 -2.48 0 0 Z " fill="#0038A8" transform="translate(339.875,388.5)"/>
  <path d="M0 0 C0 0.66 0 1.32 0 2 C-0.59 2.09 -0.59 2.09 -3.59 2.55 C-18.06 4.85 -18.06 4.85 -23.19 6.69 C-34.15 9.68 -43.71 8.51 -54 4 C-54 3.67 -54 3.34 -54 3 C-53.03 3.06 -52.06 3.12 -51.05 3.18 C-40.99 3.51 -32.3 2.29 -22.58 -0.22 C-14.39 -2.31 -8.24 -2.31 0 0 Z " fill="#0038A8" transform="translate(199,388)"/>
  <path d="M0 0 C3.61 2.72 6.45 5.52 9.25 9.06 C9.94 9.92 10.62 10.78 11.33 11.66 C13 14 13 14 14 17 C14.99 17 15.98 17 17 17 C17.33 17.99 17.66 18.98 18 20 C12.38 25 12.38 25 9 25 C8.76 24.28 8.52 23.56 8.28 22.81 C6.81 19.58 5.01 17.57 2.56 15 C-0.44 11.83 -2.88 8.83 -5 5 C-3.35 3.35 -1.7 1.7 0 0 Z " fill="#0038A8" transform="translate(341,227)"/>
  <path d="M0 0 C3.88 1.29 5.03 3.19 7.56 6.38 C8.35 7.35 9.13 8.33 9.94 9.34 C11.36 11.17 12.71 13.07 14 15 C14.99 15.33 15.98 15.66 17 16 C17.33 16.99 17.66 17.98 18 19 C15.75 21.56 15.75 21.56 13 24 C7.85 22.71 7.85 21.39 5 17 C2.62 14.42 0.19 11.88 -2.27 9.37 C-2.84 8.59 -3.41 7.8 -4 7 C-3 3 -3 3 0 0 Z " fill="#0038A8" transform="translate(326,241)"/>
  <path d="M0 0 C1.56 0.81 3.1 1.63 4.62 2.5 C4.3 3.16 3.97 3.82 3.62 4.5 C-6.14 7.43 -17.66 5.93 -27.38 3.5 C-30.44 3.88 -30.44 3.88 -32.38 4.5 C-30.38 0.5 -30.38 0.5 -26.94 -0.69 C-25.76 -0.96 -24.59 -1.22 -23.38 -1.5 C-15.69 -4.06 -7.29 -3.35 0 0 Z " fill="#0038A8" transform="translate(493.375,283.5)"/>
  <path d="M0 0 C0.66 0 1.32 0 2 0 C2.35 12.78 2.37 23.47 -4 35 C-4.66 34.67 -5.32 34.34 -6 34 C-9.28 23.82 -6.4 12.58 -1.81 3.31 C-1.21 2.22 -0.62 1.13 0 0 Z " fill="#0038A8" transform="translate(79,75)"/>
  <path d="M0 0 C6.4 6.4 8.33 15.79 8.38 24.62 C8.26 28.36 7.91 31.35 7 35 C6.34 35 5.68 35 5 35 C-0.5 23.64 -2.65 12.57 0 0 Z " fill="#0038A8" transform="translate(432,75)"/>
  <path d="M0 0 C-9.91 9.5 -17.15 13.58 -31 14 C-27.51 7.02 -21.96 4.11 -14.81 1.69 C-5.2 -1.3 -5.2 -1.3 0 0 Z " fill="#0038A8" transform="translate(498,159)"/>
  <path d="M0 0 C11.58 0.67 21.6 3.58 30 12 C30 12.66 30 13.32 30 14 C18.8 14.72 12.31 12.08 3.88 4.75 C2.55 3.53 1.25 2.29 0 1 C0 0.67 0 0.34 0 0 Z " fill="#0038A8" transform="translate(15,158)"/>
  <path d="M0 0 C1.34 0.1 2.68 0.2 4.05 0.31 C5.07 0.39 6.08 0.48 7.12 0.56 C0.63 7.06 -8.1 8.9 -17.06 9 C-23.55 8.89 -23.55 8.89 -25.88 6.56 C-24.01 5.57 -22.13 4.6 -20.25 3.62 C-19.21 3.08 -18.16 2.53 -17.09 1.97 C-11.25 -0.59 -6.3 -0.5 0 0 Z " fill="#0038A8" transform="translate(92.875,166.4375)"/>
  <path d="M0 0 C-6.33 5.49 -14.57 9.25 -23.06 9.44 C-27 9 -27 9 -31 7 C-30 4 -30 4 -26.19 1.81 C-17.94 -1.36 -8.68 -0.3 0 0 Z " fill="#0038A8" transform="translate(128,89)"/>
  <path d="M0 0 C21.12 -0.74 21.12 -0.74 30 4 C30 5.32 30 6.64 30 8 C25.3 10.35 19.71 9.56 14.88 7.99 C9.82 5.89 4.85 3.56 0 1 C0 0.67 0 0.34 0 0 Z " fill="#0038A8" transform="translate(384,89)"/>
  <path d="M0 0 C21.61 -0.79 21.61 -0.79 32 7 C26.39 9.81 17.63 8.6 11.7 7.25 C6.76 5.54 3.57 3.9 0 0 Z " fill="#0038A8" transform="translate(414,167)"/>
  <path d="M0 0 C-2.08 4.17 -2.95 5.81 -7 8 C-14.36 7.33 -19.01 5.22 -25 1 C-18.3 -5.7 -8.49 -1.82 0 0 Z " fill="#FCD116" transform="translate(388,201)"/>
  <path d="M0 0 C3.19 -0.4 3.19 -0.4 7 -0.38 C7.63 -0.38 7.63 -0.38 10.81 -0.4 C11.86 -0.27 12.92 -0.14 14 0 C16 3 16 3 16 9 C10.06 9 4.12 9 -2 9 C-2 3 -2 3 0 0 Z " fill="#0038A8" transform="translate(249,267)"/>
  <path d="M0 0 C0.6 7.13 0.6 7.13 -1.91 10.75 C-6.13 13.82 -9.81 13.55 -14.81 13.31 C-15.7 13.29 -16.58 13.27 -17.49 13.24 C-19.66 13.19 -21.83 13.1 -24 13 C-24 12.01 -24 11.02 -24 10 C-23.01 9.7 -22.02 9.39 -21 9.08 C-15.74 7.41 -4.85 0 0 0 Z " fill="#0038A8" transform="translate(294,258)"/>
  <path d="M0 0 C0.99 0.99 1.98 1.98 3 3 C2.67 4.32 2.34 5.64 2 7 C-4.27 7 -10.54 7 -17 7 C-17 5.35 -17 3.7 -17 2 C-10.77 -1.39 -6.79 -1.25 0 0 Z " fill="#0038A8" transform="translate(417,278)"/>
  <path d="M0 0 C5.71 0.61 10.62 2.1 16 4 C15.18 4.56 14.35 5.11 13.5 5.69 C12.68 6.45 11.85 7.21 11 8 C11 9.65 11 11.3 11 13 C3.38 12.12 3.38 12.12 0 11 C0 7.37 0 3.74 0 0 Z " fill="#0038A8" transform="translate(380,317)"/>
  <path d="M0 0 C0.99 0.66 1.98 1.32 3 2 C3 3.65 3 5.3 3 7 C-3.27 7 -9.54 7 -16 7 C-16 5.35 -16 3.7 -16 2 C-10.24 -1.07 -6.39 -1.22 0 0 Z " fill="#0038A8" transform="translate(109,278)"/>
  <path d="M0 0 C0.48 0.4 0.48 0.4 2.94 2.44 C2.94 3.1 2.94 3.76 2.94 4.44 C-16.79 1.13 -16.79 1.13 -25.06 -2.56 C-25.39 -3.22 -25.72 -3.88 -26.06 -4.56 C-16.2 -6.49 -8.66 -5.46 0 0 Z " fill="#0038A8" transform="translate(193.0625,438.5625)"/>
  <path d="M0 0 C-0.33 0.66 -0.66 1.32 -1 2 C-4.37 3.12 -7.71 4.12 -11.12 5.06 C-12.06 5.33 -13 5.6 -13.97 5.88 C-18.97 7.28 -23.83 8.42 -29 9 C-22.26 -1.11 -11.05 -2.21 0 0 Z " fill="#0038A8" transform="translate(346,434)"/>
  <path d="M0 0 C0 3.63 0 7.26 0 11 C-5 13 -5 13 -9 13 C-9.27 12.07 -9.54 11.14 -9.81 10.19 C-11 7 -11 7 -14 4 C-12.04 3.33 -10.08 2.66 -8.12 2 C-7.03 1.63 -5.94 1.26 -4.82 0.88 C-2 0 -2 0 0 0 Z " fill="#0038A8" transform="translate(131,317)"/>
  <path d="M0 0 C0.33 0.99 0.66 1.98 1 3 C0.03 3.25 -0.94 3.5 -1.94 3.75 C-5.1 4.72 -7.78 5.78 -10.75 7.19 C-15 9 -15 9 -18 8 C-17 4 -17 4 -14.69 2.31 C-9.75 -0.1 -5.4 -0.09 0 0 Z " fill="#0038A8" transform="translate(68,270)"/>
  <path d="M0 0 C3.6 -0.05 7.21 -0.09 10.81 -0.12 C11.32 -0.13 11.32 -0.13 13.92 -0.18 C14.9 -0.18 15.88 -0.19 16.89 -0.2 C17.8 -0.21 18.71 -0.22 19.64 -0.23 C22 0 22 0 25 2 C20.92 4.72 17.94 4.34 13.06 4.38 C12.26 4.39 12.26 4.39 8.22 4.46 C4 4 4 4 1.43 1.98 C0.96 1.32 0.49 0.67 0 0 Z " fill="#0038A8" transform="translate(232,180)"/>
  <path d="M0 0 C6.46 -0.46 10.5 0.53 16 4 C16.33 5.32 16.66 6.64 17 8 C12.36 8 9.32 6.64 5 5 C3.01 4.61 1.01 4.25 -1 4 C-0.67 2.68 -0.34 1.36 0 0 Z " fill="#0038A8" transform="translate(445,270)"/>
  <path d="M0 0 C1.04 -0.02 2.09 -0.03 3.16 -0.05 C5.94 0.31 5.94 0.31 8.94 3.31 C8.61 3.97 8.28 4.63 7.94 5.31 C7.28 5.3 7.28 5.3 3.94 5.25 C-0.46 5.24 -4.71 5.68 -9.06 6.31 C-9.39 4.99 -9.72 3.67 -10.06 2.31 C-6.07 0.32 -4.33 0.02 0 0 Z " fill="#0038A8" transform="translate(462.0625,202.6875)"/>
  <path d="M0 0 C1.04 -0.03 2.08 -0.05 3.14 -0.08 C6.55 0.29 8.41 1.3 11.19 3.25 C10.86 4.24 10.53 5.23 10.19 6.25 C9.31 6.18 8.43 6.11 7.52 6.03 C6.94 5.98 6.94 5.98 4 5.75 C2.85 5.66 1.7 5.56 0.52 5.47 C-2.25 5.29 -5.03 5.25 -7.81 5.25 C-7.81 3.93 -7.81 2.61 -7.81 1.25 C-5.14 -0.09 -2.99 0.04 0 0 Z " fill="#0038A8" transform="translate(49.8125,202.75)"/>
  <path d="M0 0 C0.66 0 1.32 0 2 0 C6 4.35 6 4.35 6 8 C3.52 10.28 0.76 12.06 -2 14 C-2.05 12.04 -2.09 10.08 -2.12 8.12 C-2.15 7.03 -2.17 5.94 -2.2 4.82 C-2 2 -2 2 0 0 Z " fill="#0038A8" transform="translate(300,227)"/>
  <path d="M0 0 C5.84 0.4 9.36 1.4 14 5 C13.67 6.32 13.34 7.64 13 9 C12.4 8.69 12.4 8.69 9.38 7.12 C5.91 5.44 2.67 4.1 -1 3 C-0.67 2.01 -0.34 1.02 0 0 Z " fill="#0038A8" transform="translate(61,134)"/>
  <path d="M0 0 C-1 3 -1 3 -3.18 4.13 C-4.07 4.46 -4.96 4.79 -5.88 5.12 C-6.76 5.46 -7.64 5.79 -8.55 6.13 C-10.36 6.77 -12.18 7.39 -14 8 C-14.06 5.75 -14.06 5.75 -13 3 C-5.19 -1.3 -5.19 -1.3 0 0 Z " fill="#0038A8" transform="translate(452,135)"/>
  <path d="M0 0 C4 2 4 2 5.25 4.62 C5.5 5.41 5.75 6.19 6 7 C5.34 7.66 4.68 8.32 4 9 C2.68 9 1.36 9 0 9 C-0.99 7.68 -1.98 6.36 -3 5 C-1 1 -1 1 0 0 Z " fill="#0038A8" transform="translate(342,246)"/>
  <path d="M0 0 C1.32 0 2.64 0 4 0 C4 3.63 4 7.26 4 11 C2.68 10.67 1.36 10.34 0 10 C0 6.7 0 3.4 0 0 Z " fill="#0038A8" transform="translate(392,306)"/>
  <path d="" fill="#0038A8" transform="translate(0,0)"/>
  <path d="" fill="#0038A8" transform="translate(0,0)"/>
  <path d="" fill="#0038A8" transform="translate(0,0)"/>
</g>
</svg>
